<?xml version="1.0" encoding="UTF-8"?>
<!-- Tap5a Local Video Cropper icon (V5) — visible layer of the Pixelmator source -->
<svg width="800" height="800" viewBox="0 0 800 800" xmlns="http://www.w3.org/2000/svg">
    <path fill="#ee0864" stroke="none" d="M 200 0 L 600 0 C 710.45697 0 800 89.54303 800 200 L 800 600 C 800 710.45697 710.45697 800 600 800 L 200 800 C 89.543045 800 0 710.45697 0 600 L 0 200 C 0 89.54303 89.543045 0 200 0 Z"/>
    <path fill="none" stroke="#ffffff" stroke-width="60" stroke-linecap="round" stroke-linejoin="round" d="M 280 200 L 280 480 C 280 502.0914 297.90863 520 320 520 L 600 520 M 520 600 L 520 320 C 520 297.90863 502.0914 280 480 280 L 200 280"/>
</svg>
