<?xml version="1.0" encoding="UTF-8"?>
<!-- Generated by Pixelmator Pro 3.8 -->
<svg width="800" height="800" viewBox="0 0 800 800" xmlns="http://www.w3.org/2000/svg">
    <g id="Version-1">
        <path id="Path" fill="#323232" stroke="none" visibility="hidden" d="M 200 0 L 600 0 C 710.45697 0 800 89.54303 800 200 L 800 600 C 800 710.45697 710.45697 800 600 800 L 200 800 C 89.543045 800 0 710.45697 0 600 L 0 200 C 0 89.54303 89.543045 0 200 0 Z"/>
        <g id="g1">
            <linearGradient id="linearGradient1" x1="279.999987" y1="360.000006" x2="633.999987" y2="360.000006" gradientUnits="userSpaceOnUse">
                <stop offset="0" stop-color="#00ff00" stop-opacity="1"/>
                <stop offset="0.748783" stop-color="#008c00" stop-opacity="0.547354"/>
                <stop offset="1" stop-color="#00ff00" stop-opacity="0"/>
            </linearGradient>
            <path id="path1" fill="none" stroke="url(#linearGradient1)" stroke-width="60" stroke-linecap="round" stroke-linejoin="round" visibility="hidden" d="M 280 200 L 280 480 C 280 502.0914 297.90863 520 320 520 L 600 520"/>
            <linearGradient id="linearGradient2" x1="519.989583" y1="281.708333" x2="520.28936" y2="640.165467" gradientUnits="userSpaceOnUse">
                <stop offset="0" stop-color="#ff0000" stop-opacity="1"/>
                <stop offset="1" stop-color="#323232" stop-opacity="1"/>
            </linearGradient>
            <path id="path2" fill="none" stroke="url(#linearGradient2)" stroke-width="60" stroke-linecap="round" stroke-linejoin="round" visibility="hidden" d="M 520 600 L 520 320 C 520 297.90863 502.0914 280 480 280 L 200 280"/>
        </g>
    </g>
    <g id="Version-2">
        <linearGradient id="linearGradient3" x1="965.685425" y1="400" x2="-165.685425" y2="400" gradientUnits="userSpaceOnUse">
            <stop offset="1e-05" stop-color="#ff0000" stop-opacity="1"/>
            <stop offset="1" stop-color="#00ff00" stop-opacity="1"/>
        </linearGradient>
        <path id="path3" fill="url(#linearGradient3)" stroke="none" visibility="hidden" d="M 200 0 L 600 0 C 710.45697 0 800 89.54303 800 200 L 800 600 C 800 710.45697 710.45697 800 600 800 L 200 800 C 89.543045 800 0 710.45697 0 600 L 0 200 C 0 89.54303 89.543045 0 200 0 Z"/>
        <g id="g2">
            <path id="path4" fill="none" stroke="#ffffff" stroke-width="60" stroke-linecap="round" stroke-linejoin="round" visibility="hidden" d="M 280 200 L 280 480 C 280 502.0914 297.90863 520 320 520 L 600 520"/>
            <path id="path5" fill="none" stroke="#ffffff" stroke-width="60" stroke-linecap="round" stroke-linejoin="round" visibility="hidden" d="M 520 600 L 520 320 C 520 297.90863 502.0914 280 480 280 L 200 280"/>
        </g>
    </g>
    <g id="Version-3">
        <path id="path6" fill="#323232" stroke="none" visibility="hidden" d="M 200 0 L 600 0 C 710.45697 0 800 89.54303 800 200 L 800 600 C 800 710.45697 710.45697 800 600 800 L 200 800 C 89.543045 800 0 710.45697 0 600 L 0 200 C 0 89.54303 89.543045 0 200 0 Z"/>
        <path id="Rectangle" fill="#ff0000" fill-rule="evenodd" stroke="none" visibility="hidden" d="M 277 509 L 517 509 L 517 282 L 277 282 Z"/>
        <g id="g3">
            <path id="path7" fill="none" stroke="#00ff00" stroke-width="60" stroke-linecap="round" stroke-linejoin="round" visibility="hidden" d="M 280 200 L 280 480 C 280 502.0914 297.90863 520 320 520 L 600 520 M 520 600 L 520 320 C 520 297.90863 502.0914 280 480 280 L 200 280"/>
        </g>
    </g>
    <g id="Version-3-copy">
        <path id="path8" fill="#323232" stroke="none" visibility="hidden" d="M 200 0 L 600 0 C 710.45697 0 800 89.54303 800 200 L 800 600 C 800 710.45697 710.45697 800 600 800 L 200 800 C 89.543045 800 0 710.45697 0 600 L 0 200 C 0 89.54303 89.543045 0 200 0 Z"/>
        <g id="g4">
            <path id="path9" fill="none" stroke="#00ff00" stroke-width="60" stroke-linecap="round" stroke-linejoin="round" visibility="hidden" d="M 280 200 L 280 480 C 280 502.0914 297.90863 520 320 520 L 600 520 M 520 600 L 520 320 C 520 297.90863 502.0914 280 480 280 L 200 280"/>
        </g>
    </g>
    <g id="Version-3-copy-2">
        <path id="path10" fill="#323232" stroke="none" d="M 200 0 L 600 0 C 710.45697 0 800 89.54303 800 200 L 800 600 C 800 710.45697 710.45697 800 600 800 L 200 800 C 89.543045 800 0 710.45697 0 600 L 0 200 C 0 89.54303 89.543045 0 200 0 Z"/>
        <g id="g5">
            <path id="path11" fill="none" stroke="#00ff00" stroke-width="60" stroke-linecap="round" stroke-linejoin="round" d="M 280 200 L 280 480 C 280 502.0914 297.90863 520 320 520 L 600 520 M 520 600 L 520 320 C 520 297.90863 502.0914 280 480 280 L 200 280"/>
        </g>
    </g>
</svg>
